<?xml version="1.0" encoding="UTF-8"?>
<svg id="Layer_2" data-name="Layer 2" xmlns="http://www.w3.org/2000/svg" viewBox="0 0 428.97 349.25">
  <defs>
    <style>
      .cls-1 {
        fill: none;
        stroke: #000;
        stroke-linecap: round;
        stroke-linejoin: round;
        stroke-width: 17px;
      }
    </style>
  </defs>
  <g id="Layer_1-2" data-name="Layer 1">
    <g>
      <path class="cls-1" d="M356.11,267.59c18.68,0,37.37.01,56.05,0,7.2,0,8.3-1.1,8.3-8.3,0-80.83,0-161.65,0-242.48,0-7.2-1.1-8.3-8.3-8.3-60.9-.01-121.79-.01-182.69,0-7.2,0-8.29,1.1-8.3,8.3-.02,12.11,0,24.22,0,36.33"/>
      <path class="cls-1" d="M35.15,99.85c-5.34,2.47-11.03,1.48-16.61,1.66-1.24.04-2.5-.06-3.74.02-4.58.28-5.92,1.64-6.22,6.22-.05.83,0,1.66,0,2.49,0,67.68.1,135.36-.08,203.03-.04,14.99,12.49,27.52,27.48,27.48,74.6-.18,149.2-.08,223.8-.08,13.04,0,22.3-6.67,26.58-19.1.77-2.24,1.7-4.42,2.45-6.66.21-.63.62-1.14.11-2.11-1.86-3.49-1.32-7.39-1.32-11.17,0-46.5-.15-93.01.08-139.51.07-14.99-12.49-27.61-27.49-27.48-32.25.26-64.5.31-96.74-.12-6.11-.08-12.18-.6-18.27.19-2.49.32-4.42-.53-6.28-2.43-9.03-9.24-18.32-18.22-27.29-27.51-2.46-2.54-5-3.33-8.37-3.31-19.79.11-39.58.02-59.37.09-2.93.01-5.67-.48-8.3-1.7"/>
      <path class="cls-1" d="M151.41,100.68c2.65-3.89,3.48-8.18,3.38-12.87-.19-8.44-.18-16.89-.01-25.33.12-6.42,1.01-7.38,7.43-7.43,16.47-.13,32.94.18,49.41-.16,6.1-.12,12.17-.15,18.27-.08,38.47.39,76.95.2,115.42.2.83,0,1.66-.05,2.49,0,4.57.3,5.92,1.65,6.22,6.22.05.83,0,1.66,0,2.49,0,65.05.05,130.1-.13,195.15,0,3.5,2.53,6.55,1.32,9.94-1.18,3.29-1.2,6.61-1.19,9.99.02,9.41.32,18.84-.1,28.23-.29,6.53-.44,6.82-6.95,6.95-17.85.34-35.71.13-53.56.1-1.25,0-2.49-.26-3.74-.4"/>
      <path class="cls-1" d="M327.46,108.15h-146.15"/>
      <path class="cls-1" d="M154.73,132.86c0-6.99-.03-13.98.02-20.97.01-2.18-.57-4.18-1.18-6.25-.95-3.19-2.39-5.49-5.88-6.25-2.22-.48-3.84-2.09-5.42-3.68-6.07-6.11-12.25-12.11-18.21-18.33-1.84-1.92-3.77-2.48-6.28-2.47-24.91.05-49.82,0-74.74.05-6.77.01-7.79,1.1-7.87,7.87-.07,5.6-.01,11.21-.01,16.82"/>
      <path class="cls-1" d="M247.74,81.58h-39.86"/>
      <path class="cls-1" d="M128.16,294.16h-39.86"/>
      <path class="cls-1" d="M40.55,274.23c-4.87,1.45-5.35,1.97-5.38,7.06-.06,8.58-.34,17.18.09,25.74.32,6.53.45,6.9,6.95,6.95,35.15.24,70.31.24,105.46,0,6.51-.04,6.62-.42,6.96-6.95.43-8.28.16-16.6.09-24.91-.06-6.77-1.11-7.86-7.87-7.87-35.29-.04-70.58-.02-105.88-.02"/>
    </g>
  </g>
</svg>