<?xml version="1.0" encoding="UTF-8"?>
<svg id="Layer_2" data-name="Layer 2" xmlns="http://www.w3.org/2000/svg" viewBox="0 0 373.67 374.16">
  <defs>
    <style>
      .cls-1 {
        fill: none;
        stroke: #000;
        stroke-linecap: round;
        stroke-linejoin: round;
        stroke-width: 20px;
      }
    </style>
  </defs>
  <g id="Layer_1-2" data-name="Layer 1">
    <g>
      <path class="cls-1" d="M273.12,75.55c-2.96,1.93-6.16,2.7-9.73,2.67-13.22-.11-26.46-.38-39.67.08-7.61.26-12.99-4.26-13.07-12.48-.13-14.1-.05-28.19-.02-42.29,0-1.74.67-3.32,1.46-4.88,1.65-3.23.44-6.52-2.99-7.81-1.64-.61-3.41-.82-5.22-.82-54.27.03-108.54-.14-162.81.16-11.96.07-20.67,6.72-26.6,17.07-3.55,6.19-4.42,12.98-4.42,19.85-.07,93.32-.07,186.64,0,279.95,0,9.65,2,18.81,8.94,26.2,6.3,6.72,13.85,10.82,23.21,10.83,68.49.03,136.98-.05,205.47.07,14.62.03,31.52-13.16,31.76-31.87.25-19.46.06-38.92.06-58.39"/>
      <path class="cls-1" d="M204.63,292.25c-.32-2.91.06-5.58,2.72-7.35-1.79-3.78-1.3-7.6-.83-11.36,1.17-9.24,2.07-18.55,3.88-27.67.93-4.68,2.71-9.3,4.35-13.87,1.09-3.03,3.67-5.06,5.64-7.45,26.87-32.62,53.83-65.18,80.83-97.69,1.79-2.15,3.68-4.4,6.35-5.6.48-.22.55-.3.77-.78,4.84-10.67,12.58-17.32,24.65-18.81,14.13-1.75,27.34,9,29.91,21.42,2.66,12.85-1.7,23.07-12.31,30.68-.37.26-.97.42-1.09.76-3.22,9.49-11.12,15.61-17.03,23.07-10.56,13.33-21.66,26.23-32.43,39.4-11.22,13.71-22.7,27.2-34.01,40.83-2.94,3.54-5.69,7.24-8.98,10.48-1.28,1.26-2.66,2.01-4.51,1.89-.74-.05-1.83-.05-2.19.39-3.81,4.64-9.63,5.1-14.68,6.98-6.98,2.6-14.18,4.61-21.3,6.81-2.19.68-4.44,1.16-6.73.39"/>
      <path class="cls-1" d="M327.76,139.55c-12.41,13.98-24,28.65-35.93,43.04-17.7,21.34-35.45,42.65-53.1,64.03-1.52,1.84-3.57,3.28-4.53,5.58"/>
      <path class="cls-1" d="M204.63,106.98h-81.22"/>
      <path class="cls-1" d="M204.63,199.05c-27.07.62-54.14.62-81.22,0"/>
      <path class="cls-1" d="M213.61,16.04c3.86.99,6.95,3.07,9.78,5.94,14.75,14.94,29.64,29.75,44.5,44.57,2.17,2.16,4.33,4.28,4.86,7.49.21,1.26,1.08,1.79,2.22,2.29,3.73,1.62,4.54,4.85,4.53,8.57-.05,11.23-.02,22.46-.02,33.68"/>
      <path class="cls-1" d="M179.18,132.25c-12.85-.06-25.7-.15-38.55-.17-5.74-.01-11.48.11-17.22.17"/>
      <path class="cls-1" d="M179.18,224.32c-18.59.31-37.18.31-55.77,0"/>
      <path class="cls-1" d="M179.18,290.94c-16.96,1.17-33.93.28-50.9.57-1.63.03-3.22-.83-4.87-.19"/>
      <path class="cls-1" d="M179.18,316.39c-12.85-.06-25.7-.15-38.55-.17-5.74-.01-11.48.11-17.22.17"/>
      <path class="cls-1" d="M308.67,121.21c4.74,3.87,9.89,7.34,14.1,11.72,3.9,4.05,8.34,7.15,12.74,10.5,4.63,3.53,9.05,7.4,13.58,11.09"/>
      <path class="cls-1" d="M213.98,239.1c3.72.71,6.2,3.4,8.99,5.61,3.36,2.67,6.76,5.27,10.34,7.7,2.93,1.98,5.14,5.3,8.02,7.62,3.63,2.92,7.42,5.65,9.33,10.13"/>
      <path class="cls-1" d="M45.19,92.39c-3.86.23-4.51,2.81-4.5,5.99.02,14.22-.01,28.44.03,42.67.01,4.26,1.24,5.57,5.6,5.59,14.22.07,28.44.07,42.67,0,4.36-.02,5.59-1.32,5.6-5.59.04-14.22.04-28.44,0-42.67-.01-4.73-1.37-5.97-6.35-5.98-14.22-.02-28.44,0-42.67,0"/>
      <path class="cls-1" d="M45.19,184.46c-3.68.36-4.52,2.77-4.51,5.99.04,14.22,0,28.44.03,42.67.01,4.26,1.24,5.57,5.6,5.59,14.22.07,28.44.07,42.67,0,4.36-.02,5.59-1.32,5.6-5.59.04-14.22.04-28.44,0-42.67-.01-4.73-1.37-5.97-6.35-5.98-14.22-.02-28.44,0-42.67,0"/>
      <path class="cls-1" d="M45.19,276.53c-3.68.36-4.52,2.77-4.51,5.99.04,14.22-.09,28.45.08,42.67.06,4.89.53,5.84,5.93,5.92,13.97.2,27.95.2,41.92,0,5.4-.08,5.87-1.03,5.93-5.92.17-14.22.09-28.44.04-42.67-.01-4.73-1.37-5.97-6.35-5.98-14.22-.02-28.44,0-42.67,0"/>
    </g>
  </g>
</svg>